<svg width="48" height="48" viewBox="0 0 48 48" fill="none" xmlns="http://www.w3.org/2000/svg">
<path d="M8.00001 36C7.43334 36 6.95801 35.808 6.57401 35.424C6.19001 35.04 5.99867 34.5653 6.00001 34C6.00001 33.4333 6.19201 32.958 6.57601 32.574C6.96001 32.19 7.43467 31.9987 8.00001 32H40C40.5667 32 41.042 32.192 41.426 32.576C41.81 32.96 42.0013 33.4347 42 34C42 34.5667 41.808 35.042 41.424 35.426C41.04 35.81 40.5653 36.0013 40 36H8.00001ZM8.00001 26C7.43334 26 6.95801 25.808 6.57401 25.424C6.19001 25.04 5.99867 24.5653 6.00001 24C6.00001 23.4333 6.19201 22.958 6.57601 22.574C6.96001 22.19 7.43467 21.9987 8.00001 22H40C40.5667 22 41.042 22.192 41.426 22.576C41.81 22.96 42.0013 23.4347 42 24C42 24.5667 41.808 25.042 41.424 25.426C41.04 25.81 40.5653 26.0013 40 26H8.00001ZM8.00001 16C7.43334 16 6.95801 15.808 6.57401 15.424C6.19001 15.04 5.99867 14.5653 6.00001 14C6.00001 13.4333 6.19201 12.958 6.57601 12.574C6.96001 12.19 7.43467 11.9987 8.00001 12H40C40.5667 12 41.042 12.192 41.426 12.576C41.81 12.96 42.0013 13.4347 42 14C42 14.5667 41.808 15.042 41.424 15.426C41.04 15.81 40.5653 16.0013 40 16H8.00001Z" fill="white"/>
</svg>
