<svg width="48" height="48" viewBox="0 0 48 48" fill="none" xmlns="http://www.w3.org/2000/svg">
<path d="M11.6479 7.26402L23.9999 19.616L36.2879 7.32802C36.5594 7.03912 36.8863 6.80801 37.2493 6.64854C37.6122 6.48908 38.0036 6.40455 38.3999 6.40002C39.2486 6.40002 40.0626 6.73717 40.6627 7.33728C41.2628 7.9374 41.5999 8.75133 41.5999 9.60002C41.6074 9.99235 41.5346 10.3821 41.386 10.7452C41.2375 11.1084 41.0162 11.4374 40.7359 11.712L28.2879 24L40.7359 36.448C41.2633 36.964 41.5726 37.6627 41.5999 38.4C41.5999 39.2487 41.2628 40.0626 40.6627 40.6628C40.0626 41.2629 39.2486 41.6 38.3999 41.6C37.9921 41.6169 37.5852 41.5489 37.2051 41.4001C36.825 41.2514 36.48 41.0252 36.1919 40.736L23.9999 28.384L11.6799 40.704C11.4096 40.9833 11.0865 41.2063 10.7295 41.36C10.3725 41.5138 9.98862 41.5954 9.59993 41.6C8.75124 41.6 7.93731 41.2629 7.33719 40.6628C6.73708 40.0626 6.39993 39.2487 6.39993 38.4C6.39247 38.0077 6.46526 37.618 6.61384 37.2548C6.76241 36.8916 6.98364 36.5626 7.26393 36.288L19.7119 24L7.26393 11.552C6.73653 11.0361 6.42726 10.3373 6.39993 9.60002C6.39993 8.75133 6.73708 7.9374 7.33719 7.33728C7.93731 6.73717 8.75124 6.40002 9.59993 6.40002C10.3679 6.40962 11.1039 6.72002 11.6479 7.26402Z" fill="white"/>
</svg>
