<svg width="24" height="24" viewBox="0 0 24 24" fill="none" xmlns="http://www.w3.org/2000/svg">
<g clip-path="url(#clip0_1845_1082)">
<path d="M7.02423 2.31C7.77519 2.56439 8.4896 2.91605 9.14923 3.356C10.0808 3.11791 11.0387 2.9983 12.0002 3C12.9932 3 13.9512 3.124 14.8492 3.355C15.5086 2.91548 16.2227 2.56416 16.9732 2.31C17.6702 2.073 18.6632 1.689 19.2532 2.342C19.6532 2.786 19.7532 3.53 19.8242 4.098C19.9042 4.732 19.9232 5.558 19.7132 6.378C20.5162 7.415 21.0002 8.652 21.0002 10C21.0002 12.042 19.8942 13.815 18.2572 15.043C17.4694 15.6265 16.5956 16.084 15.6672 16.399C15.8812 16.889 16.0002 17.431 16.0002 18V21C16.0002 21.2652 15.8949 21.5196 15.7073 21.7071C15.5198 21.8946 15.2654 22 15.0002 22H9.00023C8.73501 22 8.48066 21.8946 8.29312 21.7071C8.10559 21.5196 8.00023 21.2652 8.00023 21V20.009C7.04523 20.126 6.24423 20.022 5.56323 19.733C4.85123 19.431 4.35523 18.963 3.98223 18.515C3.62823 18.091 3.24223 17.135 2.68423 16.949C2.5596 16.9075 2.44437 16.8419 2.34512 16.7558C2.24586 16.6698 2.16452 16.5651 2.10574 16.4476C1.98703 16.2104 1.96742 15.9357 2.05123 15.684C2.13504 15.4323 2.3154 15.2242 2.55263 15.1055C2.78986 14.9868 3.06454 14.9672 3.31623 15.051C3.98223 15.273 4.41623 15.753 4.71323 16.139C5.19323 16.759 5.58323 17.569 6.34323 17.892C6.65623 18.025 7.11523 18.112 7.83323 18.014L8.00023 17.98C8.00214 17.4358 8.11547 16.8977 8.33323 16.399C7.40482 16.084 6.53104 15.6265 5.74323 15.043C4.10623 13.815 3.00023 12.043 3.00023 10C3.00023 8.654 3.48323 7.418 4.28423 6.382C4.07423 5.562 4.09223 4.734 4.17223 4.099L4.17723 4.061C4.25023 3.479 4.33523 2.794 4.74323 2.342C5.33323 1.689 6.32723 2.074 7.02323 2.311L7.02423 2.31Z" fill="white"/>
</g>
<defs>
<clipPath id="clip0_1845_1082">
<rect width="24" height="24" fill="white"/>
</clipPath>
</defs>
</svg>
