<svg width="24" height="24" viewBox="0 0 24 24" fill="none" xmlns="http://www.w3.org/2000/svg">
<path d="M20.9905 4.70465L19.4454 22.0139L12.5 23.9394L5.57379 22.0166L4.03027 4.70465H20.9905Z" fill="#E44D26"/>
<path d="M12.5098 22.4676L18.122 20.9117L19.4423 6.12012H12.5098V22.4676Z" fill="#F16529"/>
<path d="M9.50694 10.3666H12.5106V8.24341H7.18652L7.23732 8.81303L7.7592 14.6641H12.5106V12.5409H9.70101L9.50694 10.3666ZM9.98548 15.7258H7.85407L8.15151 19.0596L12.5008 20.2669L12.5106 20.2642V18.0552L12.5013 18.0576L10.1367 17.4191L9.98548 15.7258Z" fill="#EBEBEB"/>
<path d="M5.6084 0H6.6874V1.06604H7.67446V0H8.75353V3.22823H7.67453V2.14724H6.68747V3.22823H5.60846L5.6084 0ZM10.1724 1.07056H9.22263V0H12.2019V1.07056H11.2516V3.22823H10.1726V1.07056H10.1724ZM12.6748 0H13.7998L14.4919 1.13432L15.1833 0H16.3089V3.22823H15.2343V1.62814L14.4919 2.77596H14.4733L13.7305 1.62814V3.22823H12.6748V0ZM16.8458 0H17.9252V2.1612H19.4426V3.22823H16.8458V0H16.8458Z" fill="black"/>
<path d="M12.503 14.6641H15.1175L14.871 17.4178L12.5029 18.0569V20.2659L16.8557 19.0596L16.8876 18.7008L17.3866 13.111L17.4384 12.5409H12.503V14.6641ZM12.503 10.3615V10.3666H17.6316L17.6742 9.88944L17.771 8.81303L17.8217 8.24341H12.503V10.3615Z" fill="white"/>
</svg>
