<svg width="24" height="24" viewBox="0 0 24 24" fill="none" xmlns="http://www.w3.org/2000/svg">
<g clip-path="url(#clip0_1659_702)">
<path d="M18.375 0H5.625C2.5184 0 0 2.5184 0 5.625V18.375C0 21.4816 2.5184 24 5.625 24H18.375C21.4816 24 24 21.4816 24 18.375V5.625C24 2.5184 21.4816 0 18.375 0Z" fill="#CD6799"/>
<mask id="mask0_1659_702" style="mask-type:luminance" maskUnits="userSpaceOnUse" x="2" y="4" width="20" height="16">
<path d="M2.625 4.96875H21.375V19.0227H2.625V4.96875Z" fill="white"/>
</mask>
<g mask="url(#mask0_1659_702)">
<path d="M18.7599 13.0465C18.1061 13.0499 17.538 13.2074 17.0622 13.4401C16.8876 13.0944 16.7131 12.7864 16.6822 12.5604C16.648 12.2969 16.607 12.136 16.648 11.8211C16.6891 11.5062 16.874 11.0579 16.8705 11.0237C16.8671 10.9894 16.8294 10.8286 16.4529 10.8251C16.0764 10.8218 15.7513 10.897 15.7136 10.9963C15.6759 11.0955 15.6041 11.3214 15.5562 11.5542C15.4911 11.8965 14.8031 13.1184 14.4095 13.7585C14.2829 13.5086 14.1734 13.2895 14.1494 13.115C14.1152 12.8514 14.0741 12.6906 14.1152 12.3757C14.1562 12.0608 14.3411 11.6123 14.3376 11.5781C14.3343 11.5439 14.2966 11.383 13.9201 11.3797C13.5436 11.3762 13.2184 11.4515 13.1808 11.5508C13.1431 11.65 13.102 11.8828 13.0233 12.1087C12.9446 12.3346 12.0307 14.3746 11.7911 14.9017C11.6943 15.115 11.5927 15.3261 11.4865 15.5348C11.4865 15.5348 11.483 15.5452 11.4728 15.5622C11.4394 15.6277 11.4052 15.6927 11.3701 15.7573V15.7608C11.3188 15.8532 11.264 15.9387 11.2366 15.9387C11.216 15.9387 11.1784 15.6923 11.2434 15.3569C11.3804 14.6483 11.7055 13.5462 11.7021 13.5086C11.7021 13.4881 11.7637 13.2964 11.4899 13.1971C11.2229 13.0978 11.1271 13.2622 11.1031 13.2622C11.0792 13.2622 11.062 13.3204 11.062 13.3204C11.062 13.3204 11.3599 12.0813 10.4939 12.0813C9.95304 12.0813 9.20689 12.6734 8.83733 13.2074C8.41707 13.4361 7.99716 13.6654 7.57761 13.8953C7.37576 14.0083 7.16698 14.1213 6.97179 14.2274C6.95811 14.2137 6.94442 14.1966 6.93073 14.1829C5.88336 13.0636 3.94611 12.273 4.02823 10.7704C4.05908 10.2227 4.24733 8.78513 7.74879 7.0395C10.6308 5.6191 12.9241 6.01266 13.3211 6.88547C13.8892 8.13141 12.0923 10.4452 9.11454 10.7806C7.97811 10.9073 7.38261 10.4692 7.23204 10.3049C7.07454 10.1337 7.05054 10.1235 6.99233 10.1577C6.89651 10.209 6.95811 10.363 6.99233 10.452C7.08139 10.6848 7.44758 11.0955 8.06708 11.2974C8.61476 11.4755 9.9462 11.5748 11.5583 10.9518C13.3622 10.2535 14.7724 8.31272 14.3582 6.687C13.9441 5.03719 11.2058 4.49297 8.61476 5.41369C7.07445 5.96138 5.4042 6.82388 4.20279 7.94654C2.77545 9.28154 2.54961 10.4418 2.64204 10.9278C2.97401 12.6529 5.35283 13.7755 6.30439 14.6073C6.25648 14.6347 6.21195 14.6587 6.17436 14.6792C5.69858 14.9153 3.88451 15.8634 3.43264 16.8664C2.91926 18.0027 3.51486 18.8173 3.90842 18.9268C5.13036 19.2657 6.38651 18.6564 7.06086 17.6501C7.73511 16.6438 7.65298 15.3364 7.34145 14.7374C7.33811 14.7298 7.33348 14.7229 7.32776 14.7169C7.45104 14.645 7.57761 14.5697 7.70089 14.4978C7.9274 14.3639 8.15677 14.235 8.38883 14.111C8.27248 14.4293 8.18689 14.8092 8.14583 15.3569C8.09454 16.0004 8.35808 16.8355 8.70373 17.1641C8.85776 17.3078 9.03917 17.3113 9.15561 17.3113C9.55948 17.3113 9.74089 16.9759 9.94282 16.5788C10.1892 16.0928 10.4118 15.528 10.4118 15.528C10.4118 15.528 10.1345 17.0546 10.8875 17.0546C11.1613 17.0546 11.4385 16.6987 11.5618 16.5173V16.5206C11.5618 16.5206 11.5686 16.5104 11.5823 16.4864C11.6097 16.4419 11.6268 16.4145 11.6268 16.4145V16.4077C11.7364 16.216 11.9827 15.7813 12.349 15.0591C12.8213 14.1281 13.2766 12.9644 13.2766 12.9644C13.2766 12.9644 13.3176 13.2485 13.458 13.7208C13.5401 13.9981 13.7113 14.3027 13.8482 14.5971C13.7387 14.7511 13.6702 14.8366 13.6702 14.8366L13.6736 14.8401C13.5846 14.9564 13.4888 15.0831 13.3827 15.2063C13.0096 15.6513 12.5646 16.1613 12.503 16.3085C12.4311 16.483 12.4483 16.6096 12.5852 16.7123C12.6844 16.7876 12.8624 16.7978 13.0438 16.7876C13.3792 16.7636 13.6155 16.6815 13.7318 16.6301C13.9132 16.5652 14.1255 16.4659 14.3239 16.3187C14.6902 16.0483 14.9127 15.6615 14.8922 15.1515C14.8819 14.8708 14.7894 14.5902 14.6765 14.3266C14.7108 14.2787 14.7415 14.2308 14.7757 14.1829C15.3543 13.3374 15.8026 12.4099 15.8026 12.4099C15.8026 12.4099 15.8436 12.6939 15.984 13.1663C16.0524 13.4059 16.1928 13.666 16.316 13.9193C15.7718 14.3609 15.4364 14.8743 15.3166 15.2097C15.101 15.8327 15.2687 16.1133 15.5869 16.1783C15.7308 16.2092 15.9361 16.1408 16.0867 16.0757C16.2784 16.0141 16.5043 15.908 16.7199 15.7505C17.0861 15.4801 17.4387 15.1036 17.4182 14.5936C17.4079 14.3609 17.3463 14.1315 17.2607 13.909C17.7228 13.7174 18.3184 13.6113 19.0782 13.7003C20.7075 13.892 21.0292 14.9085 20.9675 15.3364C20.9059 15.7642 20.5637 15.9969 20.4507 16.0688C20.3378 16.1408 20.3001 16.1647 20.3104 16.216C20.3241 16.2913 20.3789 16.2878 20.4747 16.2742C20.6082 16.2503 21.3304 15.9285 21.3612 15.1413C21.4126 14.135 20.4542 13.0362 18.7599 13.0465ZM6.19142 17.2839C5.65067 17.8726 4.89767 18.0952 4.57245 17.9069C4.22333 17.7049 4.3602 16.8355 5.02433 16.2126C5.42811 15.8327 5.94842 15.4801 6.29408 15.2645C6.37283 15.2166 6.48917 15.1481 6.62951 15.0625C6.65351 15.0488 6.6672 15.042 6.6672 15.042L6.74933 14.9906C6.99233 15.8806 6.75954 16.6644 6.19142 17.2839ZM10.1276 14.6073C9.93936 15.066 9.54579 16.2399 9.30617 16.175C9.10086 16.1201 8.9742 15.2303 9.26511 14.3506C9.41229 13.909 9.72373 13.382 9.90514 13.1766C10.1995 12.848 10.5246 12.7385 10.6034 12.872C10.7027 13.0465 10.244 14.3198 10.1276 14.6073ZM13.3759 16.1613C13.2971 16.2023 13.2218 16.2297 13.1876 16.2092C13.1636 16.1955 13.2218 16.1408 13.2218 16.1408C13.2218 16.1408 13.6292 15.7026 13.79 15.5041C13.8824 15.3877 13.992 15.2508 14.1083 15.0968V15.1413C14.1083 15.665 13.6018 16.0175 13.3759 16.1613ZM15.8813 15.5896C15.8231 15.5485 15.8334 15.4117 16.0285 14.9838C16.1038 14.8161 16.2818 14.5355 16.5864 14.265C16.6206 14.3746 16.6446 14.4806 16.6412 14.5799C16.6378 15.2406 16.1654 15.4869 15.8813 15.5896Z" fill="white"/>
</g>
</g>
<defs>
<clipPath id="clip0_1659_702">
<rect width="24" height="24" fill="white"/>
</clipPath>
</defs>
</svg>
