<svg width="25" height="24" viewBox="0 0 25 24" fill="none" xmlns="http://www.w3.org/2000/svg">
<g clip-path="url(#clip0_1659_699)">
<path d="M20.496 0H4.08C1.82668 0 0 1.82668 0 4.08V19.8816C0 22.1349 1.82668 23.9616 4.08 23.9616H20.496C22.7493 23.9616 24.576 22.1349 24.576 19.8816V4.08C24.576 1.82668 22.7493 0 20.496 0Z" fill="#330000"/>
<path d="M11.9091 14.3798H8.10079L7.32588 16.7868C7.31534 16.8307 7.2898 16.8696 7.25368 16.8967C7.21756 16.9238 7.17312 16.9374 7.12802 16.9352H5.1991C5.08918 16.9352 5.05068 16.8748 5.0837 16.7538L8.38102 7.25768C8.41394 7.1588 8.44697 7.04619 8.4799 6.91976C8.5231 6.69973 8.54518 6.47624 8.54585 6.25208C8.5436 6.2364 8.54504 6.22041 8.55004 6.20538C8.55505 6.19035 8.56348 6.1767 8.57468 6.16549C8.58587 6.15429 8.59952 6.14584 8.61455 6.14083C8.62957 6.13581 8.64556 6.13436 8.66124 6.13659H11.2826C11.3594 6.13659 11.4034 6.16414 11.4145 6.21915L15.1569 16.7703C15.1899 16.8803 15.1569 16.9353 15.058 16.9352H12.9147C12.8779 16.9393 12.8409 16.9299 12.8105 16.9086C12.7802 16.8874 12.7586 16.8558 12.7499 16.8199L11.9091 14.3798ZM8.69426 12.3026H11.2991L11.262 12.18L11.2024 11.9859L11.1598 11.8496L11.092 11.6349L10.9477 11.183L10.8208 10.7824L10.4912 9.73889C10.4092 9.47949 10.3304 9.21905 10.255 8.95765L10.1947 8.74549L10.1243 8.49464L10.0168 8.10584L9.9966 8.03259H9.98018C9.89769 8.42831 9.79724 8.82008 9.67913 9.20667L9.43452 9.99349L9.29993 10.4282L9.16409 10.8682C9.13951 10.9477 9.11513 11.0264 9.09065 11.104L9.01769 11.3342L8.94511 11.5591L8.87292 11.7783L8.80111 11.9921C8.7773 12.0625 8.7535 12.1319 8.72978 12.2004L8.69426 12.3026ZM17.3824 7.88417C17.2142 7.89093 17.0465 7.86211 16.8903 7.79961C16.734 7.73711 16.5927 7.64234 16.4756 7.52149C16.3588 7.39539 16.2681 7.24745 16.2087 7.08618C16.1493 6.9249 16.1223 6.75347 16.1294 6.58174C16.1234 6.41174 16.1533 6.24238 16.2173 6.08474C16.2812 5.92709 16.3776 5.7847 16.5003 5.66686C16.737 5.43969 17.0521 5.31256 17.3802 5.31195L17.4153 5.31233C17.811 5.31233 18.1216 5.43041 18.3469 5.66677C18.4606 5.78957 18.549 5.9336 18.607 6.0906C18.6649 6.2476 18.6914 6.4145 18.6848 6.58174C18.6917 6.75416 18.6639 6.9262 18.603 7.08765C18.5421 7.2491 18.4494 7.39667 18.3304 7.52158C18.2102 7.64005 18.0675 7.73326 17.9107 7.79575C17.754 7.85824 17.5863 7.88873 17.4176 7.88542L17.3824 7.88417ZM16.2448 16.7703V8.88987C16.2448 8.79099 16.2885 8.74145 16.3767 8.74145H18.4046C18.4924 8.74145 18.5364 8.79089 18.5365 8.88987V16.7703C18.5365 16.8803 18.4925 16.9353 18.4046 16.9352H16.3932C16.2995 16.9352 16.2501 16.8859 16.2452 16.7872L16.2448 16.7703Z" fill="#FF9A00"/>
</g>
<defs>
<clipPath id="clip0_1659_699">
<rect width="24.576" height="24" fill="white"/>
</clipPath>
</defs>
</svg>
