<svg width="24" height="24" viewBox="0 0 24 24" fill="none" xmlns="http://www.w3.org/2000/svg">
<path d="M12 21C17.5228 21 22 16.5228 22 11C22 5.47715 17.5228 1 12 1C6.47715 1 2 5.47715 2 11C2 16.5228 6.47715 21 12 21Z" fill="#FFF59D"/>
<path d="M18.5004 11C18.5004 7.15 15.2004 4.1 11.2504 4.55C8.25045 4.9 5.85045 7.3 5.55045 10.3C5.30045 12.6 6.25045 14.65 7.85045 15.95C8.55045 16.55 9.00045 17.4 9.00045 18.35V18.5H15.0004V18.45C15.0004 17.55 15.4004 16.65 16.1004 16.05C17.5504 14.85 18.5004 13.05 18.5004 11Z" fill="#FBC02D"/>
<path d="M15.2998 10.1L13.7998 9.10002C13.6498 9.00002 13.3998 9.00002 13.2498 9.10002L11.9998 9.90002L10.7998 9.10002C10.6498 9.00002 10.3998 9.00002 10.2498 9.10002L8.7498 10.1C8.6498 10.2 8.5498 10.3 8.5498 10.45C8.5498 10.6 8.5498 10.75 8.6498 10.85L10.5498 13.2V18.5H11.5498V13C11.5498 12.9 11.4998 12.8 11.4498 12.7L9.7998 10.65L10.5498 10.15L11.7498 10.95C11.8998 11.05 12.1498 11.05 12.2998 10.95L13.4998 10.15L14.2498 10.65L12.5998 12.7C12.5498 12.8 12.4998 12.9 12.4998 13V18.5H13.4998V13.2L15.3998 10.85C15.4998 10.75 15.5498 10.6 15.4998 10.45C15.4498 10.3 15.3998 10.15 15.2998 10.1Z" fill="#FFF59D"/>
<path d="M12 23.5C12.8284 23.5 13.5 22.8284 13.5 22C13.5 21.1716 12.8284 20.5 12 20.5C11.1716 20.5 10.5 21.1716 10.5 22C10.5 22.8284 11.1716 23.5 12 23.5Z" fill="#5C6BC0"/>
<path d="M13 22.5H11C9.9 22.5 9 21.6 9 20.5V18H15V20.5C15 21.6 14.1 22.5 13 22.5Z" fill="#9FA8DA"/>
<path d="M15 20.5L9.2 21.3C9.35 21.65 9.65 22 10 22.2L14.7 21.55C14.9 21.25 15 20.9 15 20.5ZM9 19.35V20.35L15 19.5V18.5L9 19.35Z" fill="#5C6BC0"/>
</svg>
