<svg width="28" height="28" viewBox="0 0 28 28" fill="none" xmlns="http://www.w3.org/2000/svg">
<path d="M12.7777 23.5908C13.1681 23.864 13.651 23.9709 14.1203 23.8881C14.5895 23.8052 15.0066 23.5394 15.2798 23.149C15.3268 23.0821 15.3602 23.0066 15.378 22.9268C15.3957 22.847 15.3975 22.7644 15.3833 22.6839C15.369 22.6034 15.339 22.5265 15.295 22.4576C15.2509 22.3887 15.1937 22.3292 15.1266 22.2825L13.6877 20.7666L16.9715 23.065C17.0969 23.1531 17.2385 23.2156 17.3881 23.2489C17.5378 23.2822 17.6925 23.2856 17.8435 23.2589C17.9944 23.2323 18.1387 23.1761 18.2678 23.0935C18.397 23.011 18.5086 22.9038 18.5963 22.778C18.6841 22.6524 18.7464 22.5108 18.7795 22.3613C18.8126 22.2117 18.8159 22.057 18.7893 21.9061C18.7626 21.7553 18.7065 21.6111 18.6242 21.4819C18.5418 21.3527 18.4348 21.241 18.3093 21.1532L15.5124 18.5826L19.6929 21.5094C19.8184 21.5976 19.96 21.6601 20.1096 21.6934C20.2592 21.7266 20.414 21.73 20.5649 21.7034C20.7159 21.6767 20.8601 21.6205 20.9893 21.538C21.1185 21.4554 21.2301 21.3482 21.3177 21.2224C21.4056 21.0969 21.4678 20.9553 21.5009 20.8057C21.534 20.6561 21.5374 20.5015 21.5107 20.3506C21.4841 20.1997 21.428 20.0556 21.3456 19.9264C21.2632 19.7972 21.1562 19.6855 21.0307 19.5976L17.3238 16.4298L21.8847 19.6225C22.0101 19.7107 22.1517 19.7732 22.3014 19.8065C22.451 19.8398 22.6058 19.8432 22.7567 19.8165C22.9077 19.7898 23.0519 19.7336 23.1811 19.6511C23.3102 19.5685 23.4219 19.4613 23.5095 19.3355C23.5973 19.21 23.6596 19.0684 23.6927 18.9188C23.7258 18.7692 23.7291 18.6146 23.7025 18.4637C23.6758 18.3128 23.6197 18.1687 23.5374 18.0395C23.455 17.9103 23.348 17.7986 23.2225 17.7108L3.6816 8.70642L0.985045 13.0005C0.682489 13.4672 0.764934 14.0995 1.19971 14.4713L7.25549 19.6599C7.5316 19.8963 7.8186 20.1195 8.11649 20.328L12.7777 23.5908Z" fill="#E0AA94"/>
<path d="M23.1792 16.9182L14.3887 10.5785L14.3428 10.5163L14.384 10.4541L14.4253 10.4129L15.0895 10.7776C15.8346 11.2599 17.5372 11.9723 18.8275 11.9723C19.7103 11.9723 20.2392 11.6417 20.397 10.9946C20.445 10.7086 20.3777 10.4152 20.2097 10.1787C20.0418 9.94224 19.7869 9.78199 19.501 9.73308C18.7206 9.6166 17.9761 9.32664 17.3225 8.88453L16.8908 8.59442C16.4055 8.26697 15.8556 7.89597 15.4496 7.65642C14.944 7.34997 14.3941 7.20142 13.7673 7.20142C12.837 7.20142 11.892 7.52964 10.9789 7.84697L9.99426 8.18608C9.56935 8.32926 9.12352 8.40049 8.67515 8.39686C7.47426 8.39686 6.29904 7.94108 5.1627 7.50086L5.04837 7.45575C4.8145 7.36619 4.55678 7.36066 4.31928 7.44011C4.08179 7.51956 3.87927 7.67905 3.74637 7.89131L1.04981 12.187C0.912526 12.401 0.857152 12.6575 0.893878 12.9091C0.930604 13.1608 1.05696 13.3907 1.2497 13.5566L7.3047 18.746C7.57848 18.9801 7.86626 19.2033 8.16026 19.4086L12.9553 22.7655C13.1226 22.8828 13.3114 22.9659 13.5109 23.0102C13.7104 23.0544 13.9166 23.0589 14.1178 23.0235C14.319 22.988 14.5113 22.9133 14.6836 22.8035C14.856 22.6937 15.005 22.551 15.1221 22.3836C15.2164 22.2483 15.2533 22.0811 15.2247 21.9186C15.1962 21.7561 15.1045 21.6115 14.9697 21.5164L13.544 20.5185C13.5068 20.4923 13.4753 20.4587 13.4517 20.4197C13.4281 20.3808 13.4128 20.3373 13.4068 20.2922C13.4009 20.247 13.4043 20.2011 13.4169 20.1573C13.4296 20.1136 13.4511 20.0729 13.4803 20.0379C13.533 19.9745 13.6077 19.9334 13.6894 19.9226C13.7711 19.9118 13.8539 19.9321 13.9213 19.9795L17.016 22.1456C17.2526 22.3113 17.5454 22.3762 17.8298 22.326C18.1142 22.2758 18.3671 22.1147 18.5327 21.8781C18.6983 21.6415 18.7632 21.3488 18.713 21.0643C18.6629 20.7799 18.5018 20.5271 18.2651 20.3614L15.3687 18.3345C15.3314 18.3083 15.3 18.2747 15.2764 18.2357C15.2528 18.1968 15.2375 18.1533 15.2315 18.1082C15.2255 18.063 15.229 18.0171 15.2416 17.9733C15.2542 17.9296 15.2758 17.8889 15.3049 17.8539C15.3578 17.7907 15.4324 17.7497 15.5141 17.7389C15.5957 17.7281 15.6785 17.7483 15.7459 17.7955L19.7375 20.5901C19.8546 20.6721 19.9868 20.7302 20.1264 20.7612C20.266 20.7921 20.4104 20.7953 20.5512 20.7704C20.6921 20.7456 20.8266 20.6932 20.9472 20.6164C21.0678 20.5395 21.1721 20.4397 21.2542 20.3225C21.3362 20.2054 21.3943 20.0732 21.4252 19.9336C21.4562 19.794 21.4593 19.6496 21.4345 19.5088C21.4096 19.3679 21.3573 19.2334 21.2804 19.1128C21.2036 18.9922 21.1037 18.8879 20.9866 18.8059L17.2004 16.156C17.1628 16.13 17.1311 16.0965 17.1072 16.0575C17.0834 16.0185 17.0681 15.9749 17.0621 15.9296C17.0562 15.8843 17.0598 15.8383 17.0728 15.7945C17.0857 15.7507 17.1077 15.7101 17.1374 15.6753C17.1846 15.619 17.2513 15.5824 17.3241 15.5729C17.397 15.5634 17.4708 15.5816 17.5309 15.624L21.93 18.7032C22.0472 18.7852 22.1795 18.8433 22.3191 18.8743C22.4588 18.9052 22.6032 18.9083 22.7441 18.8834C22.8849 18.8585 23.0195 18.8062 23.1402 18.7293C23.2608 18.6524 23.3651 18.5525 23.4471 18.4353C23.5291 18.318 23.5872 18.1858 23.6182 18.0462C23.6491 17.9065 23.6522 17.7621 23.6273 17.6212C23.6024 17.4804 23.5501 17.3458 23.4732 17.2251C23.3963 17.1045 23.2964 17.0002 23.1792 16.9182Z" fill="#F7DECE"/>
<path d="M12.8611 21.7226C12.8067 21.9302 12.7001 22.1099 12.5585 22.2522L11.7777 23.0269C11.6346 23.1716 11.4561 23.2762 11.26 23.3302C11.0638 23.3843 10.8569 23.3859 10.66 23.3349C10.4611 23.2831 10.2795 23.1798 10.1334 23.0353C9.98737 22.8908 9.88205 22.7102 9.82814 22.512C9.77423 22.3137 9.77364 22.1047 9.82643 21.9061C9.87922 21.7076 9.98352 21.5265 10.1288 21.3811L10.9097 20.6065C11.0527 20.4618 11.2312 20.3572 11.4273 20.3031C11.6235 20.2491 11.8304 20.2475 12.0273 20.2985C12.3265 20.3771 12.5824 20.5711 12.7387 20.8381C12.895 21.1051 12.939 21.4232 12.8611 21.7226ZM4.66021 17.8951L5.82921 16.7308C5.96288 16.5973 6.06213 16.4333 6.11842 16.253C6.17472 16.0727 6.18639 15.8814 6.15242 15.6955C6.11845 15.5097 6.03986 15.3349 5.92341 15.1862C5.80696 15.0374 5.65613 14.9192 5.48388 14.8416C5.2681 14.7445 5.02785 14.7156 4.79521 14.7587C4.56256 14.8018 4.3486 14.9148 4.18188 15.0827L3.01288 16.247C2.87924 16.3806 2.78003 16.5446 2.72379 16.7249C2.66755 16.9053 2.65595 17.0966 2.69 17.2825C2.72404 17.4683 2.80272 17.6431 2.91925 17.7918C3.03578 17.9405 3.18668 18.0587 3.35899 18.1362C3.5747 18.233 3.81476 18.2618 4.04722 18.2187C4.27968 18.1756 4.4935 18.0628 4.66021 17.8951ZM8.70777 17.9356C8.82229 17.8287 8.9141 17.6998 8.97773 17.5566C9.04136 17.4134 9.0755 17.2589 9.07811 17.1023C9.08073 16.9456 9.05177 16.79 8.99295 16.6448C8.93414 16.4996 8.84668 16.3677 8.73579 16.2571C8.6249 16.1464 8.49286 16.0592 8.34753 16.0006C8.20221 15.9421 8.04658 15.9134 7.88994 15.9163C7.73329 15.9192 7.57884 15.9537 7.43579 16.0176C7.29274 16.0815 7.16402 16.1735 7.05732 16.2882L4.72244 18.62C4.60791 18.7269 4.5161 18.8558 4.45247 18.999C4.38884 19.1422 4.3547 19.2967 4.35209 19.4533C4.34947 19.61 4.37844 19.7656 4.43725 19.9108C4.49607 20.056 4.58353 20.1879 4.69441 20.2985C4.8053 20.4092 4.93735 20.4964 5.08267 20.555C5.228 20.6135 5.38362 20.6422 5.54027 20.6393C5.69691 20.6364 5.85137 20.6019 5.99442 20.538C6.13747 20.4741 6.26618 20.3821 6.37288 20.2674L8.70777 17.9356ZM10.4578 20.2689C10.6152 20.1111 10.7242 19.9115 10.7717 19.6938C10.8193 19.476 10.8035 19.2492 10.7262 19.0401C10.6488 18.831 10.5132 18.6485 10.3354 18.5141C10.1576 18.3797 9.945 18.299 9.72277 18.2817C9.55497 18.269 9.38642 18.2931 9.22886 18.3522C9.0713 18.4113 8.92851 18.504 8.81044 18.6239L7.25099 20.1756C7.0933 20.3333 6.98413 20.533 6.93642 20.7509C6.88871 20.9688 6.90447 21.1958 6.98182 21.405C7.05917 21.6142 7.19487 21.7968 7.37284 21.9313C7.55082 22.0657 7.7636 22.1463 7.98599 22.1636C8.33988 22.1916 8.66577 22.0539 8.89832 21.8214L10.4578 20.2689ZM23.3339 17.0512L23.8215 16.6297L18.4448 8.1908L8.90144 9.73468C8.74965 9.76032 8.60441 9.81559 8.47399 9.89736C8.34357 9.97913 8.23054 10.0858 8.14134 10.2112C8.05215 10.3367 7.98853 10.4785 7.95414 10.6285C7.91974 10.7786 7.91524 10.9339 7.94088 11.0857C8.45266 13.1818 12.6099 11.6247 14.4392 10.6182L23.3339 17.0512Z" fill="#E0AA94"/>
<path d="M12.8611 20.9448C12.8067 21.1525 12.7001 21.3321 12.5585 21.4745L11.7777 22.2491C11.6346 22.3938 11.4561 22.4984 11.26 22.5525C11.0638 22.6065 10.8569 22.6081 10.66 22.5571C10.4612 22.5053 10.2795 22.402 10.1334 22.2575C9.98737 22.113 9.88205 21.9325 9.82814 21.7342C9.77423 21.5359 9.77364 21.3269 9.82643 21.1283C9.87922 20.9298 9.98352 20.7487 10.1288 20.6033L10.9097 19.8287C11.0527 19.684 11.2312 19.5794 11.4273 19.5253C11.6235 19.4713 11.8304 19.4697 12.0273 19.5207C12.3265 19.5993 12.5824 19.7933 12.7387 20.0603C12.895 20.3273 12.939 20.6454 12.8611 20.9448ZM4.66021 17.1173L5.82921 15.953C5.96288 15.8195 6.06213 15.6555 6.11842 15.4752C6.17472 15.2949 6.18639 15.1036 6.15242 14.9178C6.11845 14.7319 6.03986 14.5571 5.92341 14.4084C5.80696 14.2596 5.65613 14.1414 5.48388 14.0638C5.26806 13.967 5.02786 13.9382 4.79527 13.9812C4.56268 14.0243 4.34872 14.1372 4.18188 14.3049L3.01288 15.4692C2.87924 15.6028 2.78003 15.7668 2.72379 15.9472C2.66755 16.1275 2.65595 16.3189 2.69 16.5047C2.72404 16.6905 2.80272 16.8653 2.91925 17.014C3.03578 17.1628 3.18668 17.2809 3.35899 17.3585C3.5747 17.4552 3.81476 17.484 4.04722 17.4409C4.27968 17.3978 4.4935 17.285 4.66021 17.1173ZM8.70777 17.1578C8.82229 17.0509 8.9141 16.922 8.97773 16.7788C9.04136 16.6356 9.0755 16.4811 9.07812 16.3245C9.08073 16.1678 9.05177 16.0122 8.99295 15.867C8.93414 15.7218 8.84668 15.5899 8.73579 15.4793C8.6249 15.3686 8.49286 15.2814 8.34753 15.2228C8.20221 15.1643 8.04658 15.1356 7.88994 15.1385C7.73329 15.1414 7.57884 15.1759 7.43579 15.2398C7.29274 15.3037 7.16402 15.3957 7.05732 15.5104L4.72244 17.8422C4.60791 17.9491 4.5161 18.078 4.45247 18.2212C4.38884 18.3644 4.3547 18.5189 4.35209 18.6755C4.34947 18.8322 4.37844 18.9878 4.43725 19.133C4.49607 19.2782 4.58353 19.4101 4.69441 19.5207C4.8053 19.6314 4.93735 19.7186 5.08267 19.7772C5.228 19.8357 5.38362 19.8644 5.54027 19.8615C5.69691 19.8586 5.85137 19.8241 5.99442 19.7602C6.13747 19.6963 6.26618 19.6043 6.37288 19.4896L8.70777 17.1578ZM10.4578 19.4911C10.6152 19.3333 10.7242 19.1337 10.7717 18.916C10.8193 18.6982 10.8035 18.4714 10.7262 18.2623C10.6488 18.0532 10.5132 17.8707 10.3354 17.7363C10.1576 17.6019 9.945 17.5212 9.72277 17.5039C9.55497 17.4912 9.38642 17.5153 9.22886 17.5744C9.0713 17.6335 8.92851 17.7262 8.81044 17.8461L7.25099 19.3978C7.0933 19.5555 6.98413 19.7552 6.93642 19.9731C6.88871 20.191 6.90447 20.418 6.98182 20.6272C7.05917 20.8364 7.19487 21.019 7.37284 21.1535C7.55082 21.2879 7.7636 21.3686 7.98599 21.3858C8.33988 21.4138 8.66577 21.2761 8.89832 21.0436L10.4578 19.4911ZM27.2243 13.692C27.4302 13.514 27.5649 13.2676 27.6033 12.9981C27.6418 12.7286 27.5815 12.4544 27.4335 12.2259L27.4312 12.222L24.7347 7.15012C24.5923 6.9226 24.3752 6.75165 24.1207 6.66652C23.8662 6.58139 23.5899 6.58737 23.3393 6.68345C21.79 7.28312 20.0929 7.97223 18.4455 7.41223L17.5915 7.119C16.0764 6.594 14.4291 5.97878 12.9249 6.89034C12.3843 7.20845 11.5731 7.77156 11.0497 8.11923C10.403 8.55112 9.66986 8.83673 8.90144 8.95612C8.74943 8.98127 8.60389 9.03624 8.47322 9.11786C8.34254 9.19949 8.2293 9.30616 8.14002 9.43173C8.05074 9.5573 7.98718 9.69929 7.95301 9.84953C7.91883 9.99977 7.91471 10.1553 7.94088 10.3071C8.41766 12.2609 12.0631 11.0133 14.0371 10.0201C14.1603 9.95825 14.2982 9.93141 14.4356 9.94252C14.573 9.95363 14.7048 10.0023 14.8164 10.0831L23.8262 16.6289L27.2243 13.692Z" fill="#EEC2AD"/>
</svg>
