<svg width="24" height="24" viewBox="0 0 24 24" fill="none" xmlns="http://www.w3.org/2000/svg">
<path d="M12.5 23.9394L5.57379 22.0166L4.03027 4.70465H20.9905L19.4454 22.0139L12.5 23.9394Z" fill="#264DE4"/>
<path d="M18.122 20.9117L19.4423 6.12012H12.5098V22.4676L18.122 20.9117Z" fill="#2965F1"/>
<path d="M7.56893 12.5409L7.7592 14.6641H12.5106V12.5409H7.56893ZM7.18652 8.24341L7.37952 10.3666H12.5106V8.24341H7.18652ZM12.5106 18.0552L12.5013 18.0576L10.1367 17.4191L9.98548 15.7258H7.85407L8.15151 19.0596L12.5008 20.2669L12.5106 20.2642V18.0552Z" fill="#EBEBEB"/>
<path d="M8.02148 0H10.593V1.07541H9.0969V2.15083H10.5931V3.22617H8.02148V0ZM11.1074 0H13.679V0.935136H12.1828V1.12215H13.679V3.27297H11.1074V2.29097H12.6036V2.10396H11.1073L11.1074 0ZM14.1933 0H16.7649V0.935136H15.2688V1.12215H16.7649V3.27297H14.1933V2.29097H15.6895V2.10396H14.1934V0H14.1933Z" fill="black"/>
<path d="M17.4384 12.5409L17.8217 8.24341H12.503V10.3666H15.4948L15.3016 12.5409H12.503V14.6641H15.1175L14.871 17.4178L12.5029 18.0569V20.2659L16.8557 19.0596L16.8876 18.7008L17.3866 13.111L17.4384 12.5409Z" fill="white"/>
</svg>
