<svg width="24" height="24" viewBox="0 0 24 24" fill="none" xmlns="http://www.w3.org/2000/svg">
<g clip-path="url(#clip0_1659_678)">
<path d="M18.375 0H5.625C2.5184 0 0 2.5184 0 5.625V18.375C0 21.4816 2.5184 24 5.625 24H18.375C21.4816 24 24 21.4816 24 18.375V5.625C24 2.5184 21.4816 0 18.375 0Z" fill="#0073AA"/>
<path d="M3.95801 11.9995C3.95801 15.1827 5.80798 17.9337 8.49054 19.2374L4.65429 8.72655C4.19442 9.75635 3.95716 10.8716 3.95801 11.9995ZM17.4293 11.5936C17.4293 10.5998 17.0723 9.91146 16.7661 9.37567C16.3584 8.71324 15.9763 8.15224 15.9763 7.4898C15.9763 6.75049 16.537 6.06236 17.3268 6.06236C17.3625 6.06236 17.3962 6.06677 17.431 6.06874C16.0002 4.75792 14.094 3.95758 12.0002 3.95758C9.19067 3.95758 6.71876 5.39908 5.28082 7.58252C5.46945 7.58814 5.64729 7.59217 5.79832 7.59217C6.63954 7.59217 7.94164 7.48999 7.94164 7.48999C8.37514 7.46449 8.42632 8.10124 7.9932 8.15252C7.9932 8.15252 7.55754 8.2038 7.07276 8.22921L10.0013 16.9403L11.7613 11.6619L10.5083 8.22892C10.0753 8.20352 9.66504 8.15224 9.66504 8.15224C9.23163 8.12683 9.28245 7.46421 9.71585 7.4898C9.71585 7.4898 11.0439 7.5918 11.8341 7.5918C12.6753 7.5918 13.9774 7.4898 13.9774 7.4898C14.4113 7.46421 14.4622 8.10096 14.029 8.15224C14.029 8.15224 13.5924 8.20352 13.1086 8.22892L16.0149 16.874L16.817 14.1935C17.1648 13.081 17.4293 12.2821 17.4293 11.5936Z" fill="white"/>
<path d="M12.1405 12.7029L9.72754 19.7145C10.4653 19.9318 11.2303 20.0421 11.9994 20.0421C12.909 20.0425 13.812 19.8883 14.6699 19.5862C14.6476 19.5511 14.6285 19.514 14.6128 19.4754L12.1405 12.7029ZM19.056 8.14105C19.0926 8.41515 19.1107 8.6914 19.1102 8.96793C19.1102 9.78402 18.9578 10.7015 18.4987 11.8486L16.0422 18.951C18.4331 17.5567 20.0413 14.9665 20.0413 11.9996C20.0414 10.6013 19.6843 9.28649 19.056 8.14105Z" fill="white"/>
<path d="M11.9998 2.625C6.83063 2.625 2.625 6.83034 2.625 11.9994C2.625 17.1692 6.83063 21.3743 11.9998 21.3743C17.1687 21.3743 21.375 17.1692 21.375 11.9994C21.3748 6.83034 17.1687 2.625 11.9998 2.625ZM11.9998 20.9447C7.06763 20.9447 3.05484 16.9318 3.05484 11.9994C3.05484 7.06734 7.06753 3.05484 11.9998 3.05484C16.9317 3.05484 20.9442 7.06734 20.9442 11.9994C20.9442 16.9318 16.9317 20.9447 11.9998 20.9447Z" fill="white"/>
</g>
<defs>
<clipPath id="clip0_1659_678">
<rect width="24" height="24" fill="white"/>
</clipPath>
</defs>
</svg>
