<svg width="24" height="24" viewBox="0 0 24 24" fill="none" xmlns="http://www.w3.org/2000/svg">
<g clip-path="url(#clip0_1659_695)">
<path d="M18.375 0H5.625C2.5184 0 0 2.5184 0 5.625V18.375C0 21.4816 2.5184 24 5.625 24H18.375C21.4816 24 24 21.4816 24 18.375V5.625C24 2.5184 21.4816 0 18.375 0Z" fill="#470137"/>
<path d="M12.5849 7.52017L9.77243 12.1608L12.7724 17.0827C12.7912 17.1202 12.8006 17.1577 12.7912 17.1952C12.7818 17.2327 12.7443 17.2045 12.6881 17.2139H10.5412C10.3912 17.2139 10.2881 17.2045 10.2224 17.1108C10.0256 16.717 9.8193 16.3327 9.62243 15.9389C9.42555 15.5545 9.20993 15.1608 8.98493 14.7577C8.75993 14.3545 8.53493 13.9514 8.30993 13.5389H8.29118C8.0943 13.942 7.87868 14.3452 7.66305 14.7483C7.44743 15.1514 7.2318 15.5545 7.02555 15.9483C6.80993 16.342 6.5943 16.7452 6.37868 17.1295C6.34118 17.2233 6.26618 17.2327 6.16305 17.2327H4.10055C4.06305 17.2327 4.03493 17.2514 4.03493 17.2045C4.02555 17.167 4.03493 17.1295 4.05368 17.1014L6.9693 12.3202L4.12868 7.5108C4.10055 7.4733 4.09118 7.4358 4.10993 7.41705C4.12868 7.38892 4.16618 7.37955 4.20368 7.37955H6.3318C6.37868 7.37955 6.42555 7.38892 6.46305 7.3983C6.50055 7.41705 6.52868 7.44517 6.5568 7.48267C6.73493 7.8858 6.94118 8.28892 7.1568 8.69205C7.3818 9.09517 7.59743 9.48892 7.8318 9.88267C8.0568 10.2764 8.26305 10.6702 8.45993 11.0733H8.47868C8.67555 10.6608 8.8818 10.2577 9.08805 9.86392C9.2943 9.47017 9.50993 9.07642 9.72555 8.68267C9.94118 8.28892 10.1474 7.8858 10.3537 7.50142C10.3631 7.46392 10.3818 7.42642 10.4099 7.40767C10.4474 7.38892 10.4849 7.37955 10.5318 7.38892H12.5099C12.5568 7.37955 12.6037 7.40767 12.6131 7.45455C12.6224 7.46392 12.6037 7.50142 12.5849 7.52017ZM16.9162 17.4109C16.2224 17.4203 15.5287 17.2796 14.9006 16.989C14.3099 16.7171 13.8224 16.2671 13.4849 15.714C13.1381 15.1421 12.9693 14.4296 12.9693 13.5765C12.9599 12.8828 13.1381 12.1984 13.4849 11.5984C13.8412 10.989 14.3568 10.4828 14.9756 10.1453C15.6318 9.77964 16.4193 9.60152 17.3474 9.60152C17.3943 9.60152 17.4599 9.60152 17.5443 9.61089C17.6287 9.62027 17.7224 9.62027 17.8349 9.62964V6.66714C17.8349 6.60152 17.8631 6.56402 17.9287 6.56402H19.8318C19.8787 6.55464 19.9162 6.59214 19.9256 6.62964V15.5734C19.9256 15.7421 19.9349 15.9296 19.9443 16.1359C19.9631 16.3328 19.9724 16.5203 19.9818 16.6796C19.9818 16.7453 19.9537 16.8015 19.8881 16.8296C19.4006 17.0359 18.8849 17.1859 18.3599 17.2796C17.8818 17.364 17.4037 17.4109 16.9162 17.4109ZM17.8349 15.5359V11.4109C17.7506 11.3921 17.6662 11.3734 17.5818 11.364C17.4787 11.3546 17.3756 11.3453 17.2724 11.3453C16.9068 11.3453 16.5412 11.4203 16.2131 11.589C15.8943 11.7484 15.6224 11.9828 15.4162 12.2828C15.2099 12.5828 15.1068 12.9859 15.1068 13.4734C15.0974 13.8015 15.1537 14.1296 15.2662 14.439C15.3599 14.6921 15.5006 14.9171 15.6881 15.1046C15.8662 15.2734 16.0818 15.4046 16.3256 15.4796C16.5787 15.564 16.8412 15.6015 17.1037 15.6015C17.2443 15.6015 17.3756 15.5921 17.4974 15.5828C17.6193 15.5921 17.7224 15.5734 17.8349 15.5359Z" fill="#FF61F6"/>
</g>
<defs>
<clipPath id="clip0_1659_695">
<rect width="24" height="24" fill="white"/>
</clipPath>
</defs>
</svg>
