<svg width="24" height="24" viewBox="0 0 24 24" fill="none" xmlns="http://www.w3.org/2000/svg">
<path d="M8.28758 21.378L3.04883 17.4802L15.2405 1.09198L20.48 4.99011L8.28758 21.378Z" fill="#EE4237"/>
<path d="M8.28728 21.3761L6.46703 20.0216L18.6598 3.63376L20.48 4.98788L8.28728 21.3761ZM4.51628 18.5723L3.05078 17.4825L15.2372 1.09088L16.7027 2.18026L4.51628 18.5723Z" fill="#DA4241"/>
<path d="M5.66985 19.4291L3.0516 17.4813L2.6766 20.7262L2.29785 23.9617L5.2926 22.6687L8.28885 21.3787L5.66985 19.4291Z" fill="#E58732"/>
<path d="M15.5847 0.630745C15.0874 1.29749 15.2461 2.25637 15.9387 2.77199L18.6702 4.80337C19.3628 5.32012 20.3262 5.19449 20.8231 4.52812C21.3214 3.85949 21.1617 2.90062 20.4691 2.38649L17.7379 0.35362C17.0457 -0.162005 16.0808 -0.0378801 15.5847 0.630745Z" fill="#EA97BD"/>
<path d="M19.7159 6.01877L14.4775 2.12252L14.8987 1.55627L20.137 5.45252L19.7159 6.01877Z" fill="#BCBDBF"/>
<path d="M14.0527 2.6876L19.2896 6.58685L19.7134 6.01872L14.4742 2.12322L14.0527 2.6876ZM20.1349 5.45397L14.8954 1.55697L15.3165 0.990723L20.556 4.88772L20.1349 5.45397Z" fill="#E7E6E6"/>
<path d="M3.51953 21.6314L3.82103 21.8549L6.46853 20.0249L4.51553 18.5699L3.51953 21.6314Z" fill="#F79420"/>
<path d="M5.43667 22.605L5.29155 22.665L2.29492 23.961L2.67367 20.7225L2.6928 20.562L5.43667 22.605Z" fill="#424143"/>
</svg>
