<svg width="24" height="24" viewBox="0 0 24 24" fill="none" xmlns="http://www.w3.org/2000/svg">
<g clip-path="url(#clip0_1728_1026)">
<path d="M13.667 1.97666C13.225 1.97666 12.801 2.15226 12.4885 2.46482C12.1759 2.77738 12.0003 3.2013 12.0003 3.64333V3.64666L10.3337 0.309998C9.89163 0.309998 9.46771 0.485592 9.15515 0.798153C8.84259 1.11071 8.66699 1.53464 8.66699 1.97666V2.83333L7.00033 1.81C6.5583 1.81 6.13437 1.98559 5.82181 2.29815C5.50925 2.61071 5.33366 3.03464 5.33366 3.47666V5.83333L4.66699 12H13.695L13.667 1.97666Z" fill="#E0AA94"/>
<path d="M20.917 10.8127C19.9963 10.4053 18.681 10.9513 17.7503 12.2713C17.139 13.138 16.959 14.372 16.1563 14.5007C15.8497 14.5493 15.3337 14.292 15.3337 13.5693V3C15.3337 3 15.3337 1.66667 14.0003 1.66667C12.667 1.66667 12.667 3 12.667 3V10.7553C12.667 10.736 12.0003 10.7127 12.0003 10.7007V1.33333C12.0003 1.33333 12.0003 0 10.667 0C9.33366 0 9.33366 1.33333 9.33366 1.33333V10.702C9.33366 10.7133 8.66699 10.7293 8.66699 10.748V2.83333C8.66699 2.83333 8.66699 1.5 7.33366 1.5C6.00033 1.5 6.00033 2.83333 6.00033 2.83333V11.2587C6.00033 11.3373 5.33366 11.426 5.33366 11.524V5.83333C5.33366 5.83333 5.33366 4.5 4.00033 4.5C2.66699 4.5 2.66699 5.83333 2.66699 5.83333V16C2.66699 20.418 6.24899 24 10.667 24C13.8503 24 16.0403 22.268 17.2643 20.472C18.3023 18.9487 18.6037 17.3667 18.667 16.8887C18.667 16.8887 18.749 15.9027 19.4377 14.9787C20.0949 14.0901 20.7899 13.2302 21.521 12.4013C21.7323 12.1627 21.9377 11.264 20.917 10.8127Z" fill="#F7DECE"/>
<path d="M15.6258 14.314C15.4278 14.1367 15.3778 13.946 15.3478 13.7753C14.0865 13.948 12.3765 14.3013 11.0632 15.5853C9.35917 17.2513 9.0685 19.052 9.0825 20.2567C9.09383 21.228 9.62383 21.688 9.77917 20.2487C9.97383 18.4447 11.2818 14.8733 15.6352 14.5287C15.6538 14.5273 15.8932 14.5127 16.0292 14.5053C16.0292 14.5053 15.7945 14.4653 15.6258 14.314Z" fill="#E0AA94"/>
</g>
<defs>
<clipPath id="clip0_1728_1026">
<rect width="24" height="24" fill="white"/>
</clipPath>
</defs>
</svg>
