<svg width="30" height="30" viewBox="0 0 30 30" fill="none" xmlns="http://www.w3.org/2000/svg">
<path d="M14.9999 22.7733C23.2841 22.7733 29.9997 19.2423 29.9997 14.8867C29.9997 10.531 23.2841 7 14.9999 7C6.71567 7 0 10.531 0 14.8867C0 19.2423 6.71567 22.7733 14.9999 22.7733Z" fill="url(#paint0_radial_1659_684)"/>
<path d="M14.9999 22.1874C22.9605 22.1874 29.4138 18.9187 29.4138 14.8867C29.4138 10.8546 22.9605 7.58594 14.9999 7.58594C7.03928 7.58594 0.585938 10.8546 0.585938 14.8867C0.585938 18.9187 7.03928 22.1874 14.9999 22.1874Z" fill="#6181B6"/>
<path d="M17.9182 17.2538L18.633 13.5742C18.7971 12.7422 18.6564 12.1211 18.2346 11.7344C17.8244 11.3594 17.1213 11.1719 16.0901 11.1719H14.8479L15.1994 9.34375C15.2112 9.27344 15.1994 9.20312 15.1526 9.14453C15.1057 9.08594 15.0471 9.0625 14.9768 9.0625H13.2659C13.1487 9.0625 13.0549 9.14453 13.0315 9.25L12.2698 13.1523C12.1995 12.707 12.0354 12.332 11.7542 12.0273C11.2503 11.4531 10.4651 11.1601 9.39871 11.1601H6.10577C5.98859 11.1601 5.89484 11.2422 5.8714 11.3476L4.33626 19.2694C4.32454 19.3398 4.33626 19.4101 4.38313 19.4687C4.43001 19.5273 4.4886 19.5507 4.55891 19.5507H6.28155C6.39874 19.5507 6.49249 19.4687 6.51593 19.3632L6.89092 17.4531H8.16826C8.83622 17.4531 9.41043 17.3827 9.84402 17.2421C10.3011 17.0898 10.7112 16.8437 11.0745 16.5038C11.3674 16.2343 11.6135 15.9296 11.801 15.6015L11.4964 17.1835C11.4846 17.2538 11.4964 17.3241 11.5432 17.3827C11.5901 17.4413 11.6487 17.4648 11.719 17.4648H13.4299C13.5471 17.4648 13.6409 17.3827 13.6643 17.2773L14.508 12.9414H15.6799C16.1838 12.9414 16.3244 13.0351 16.3713 13.082C16.4065 13.1172 16.4768 13.2578 16.3947 13.6914L15.7151 17.1952C15.7033 17.2656 15.7151 17.3359 15.7619 17.3945C15.8088 17.4531 15.8674 17.4765 15.9377 17.4765H17.6955C17.801 17.4413 17.8947 17.3593 17.9182 17.2538ZM9.99637 14.207C9.8909 14.7578 9.69168 15.1562 9.39871 15.3789C9.10575 15.6015 8.62528 15.7187 7.99248 15.7187H7.23076L7.78154 12.8828H8.76591C9.49246 12.8828 9.78543 13.0351 9.90262 13.164C10.055 13.3515 10.0901 13.7148 9.99637 14.207ZM25.2306 12.0273C24.7267 11.4531 23.9416 11.1601 22.8752 11.1601H19.5588C19.4416 11.1601 19.3478 11.2422 19.3244 11.3476L17.7893 19.2577C17.7775 19.328 17.7893 19.3983 17.8361 19.4569C17.883 19.5155 17.9416 19.539 18.0119 19.539H19.7346C19.8518 19.539 19.9455 19.4569 19.9689 19.3515L20.3439 17.4413H21.6213C22.2892 17.4413 22.8634 17.371 23.297 17.2304C23.7541 17.0781 24.1642 16.832 24.5275 16.4921C24.8322 16.2109 25.09 15.8945 25.2775 15.5546C25.465 15.2148 25.6056 14.8398 25.6876 14.4296C25.8869 13.4101 25.7345 12.6133 25.2306 12.0273ZM23.4377 14.207C23.3322 14.7578 23.133 15.1562 22.84 15.3789C22.547 15.6015 22.0666 15.7187 21.4338 15.7187H20.6721L21.2228 12.8828H22.2072C22.9338 12.8828 23.2267 13.0351 23.3439 13.164C23.508 13.3515 23.5431 13.7148 23.4377 14.207Z" fill="white"/>
<path d="M8.76559 12.6484C9.42183 12.6484 9.85542 12.7656 10.0781 13.0117C10.3007 13.2578 10.3476 13.6679 10.2304 14.2539C10.1132 14.8632 9.87886 15.3085 9.53902 15.5664C9.19918 15.8242 8.68356 15.9531 7.99216 15.9531H6.9492L7.59372 12.6484H8.76559ZM4.57031 19.3046H6.29295L6.70311 17.207H8.17966C8.8359 17.207 9.36324 17.1367 9.78511 16.996C10.207 16.8554 10.582 16.6328 10.9335 16.3046C11.2265 16.0351 11.4609 15.7421 11.6367 15.4257C11.8124 15.1093 11.9413 14.7578 12.0117 14.3711C12.1992 13.4336 12.0585 12.707 11.6015 12.1797C11.1445 11.6523 10.4179 11.3945 9.42183 11.3945H6.10546L4.57031 19.3046ZM13.2773 9.29688H14.9882L14.578 11.3945H16.1015C17.0624 11.3945 17.7186 11.5586 18.0819 11.8984C18.4452 12.2383 18.5507 12.7773 18.41 13.5273L17.6952 17.207H15.9608L16.6405 13.7031C16.7226 13.3047 16.6874 13.0351 16.5585 12.8945C16.4296 12.7539 16.1366 12.6718 15.703 12.6718H14.3319L13.453 17.207H11.7421L13.2773 9.29688ZM22.2069 12.6484C22.8631 12.6484 23.2967 12.7656 23.5194 13.0117C23.742 13.2578 23.7889 13.6679 23.6717 14.2539C23.5545 14.8632 23.3202 15.3085 22.9803 15.5664C22.6405 15.8242 22.1248 15.9531 21.4334 15.9531H20.3905L21.035 12.6484H22.2069ZM18.0116 19.3046H19.7342L20.1444 17.207H21.6209C22.2772 17.207 22.8045 17.1367 23.2264 16.996C23.6483 16.8554 24.0233 16.6328 24.3748 16.3046C24.6678 16.0351 24.9022 15.7421 25.078 15.4257C25.2537 15.1093 25.3826 14.7578 25.4529 14.3711C25.6404 13.4336 25.4998 12.707 25.0428 12.1797C24.5858 11.6523 23.8592 11.3945 22.8631 11.3945H19.5467L18.0116 19.3046Z" fill="#000004"/>
<defs>
<radialGradient id="paint0_radial_1659_684" cx="0" cy="0" r="1" gradientUnits="userSpaceOnUse" gradientTransform="translate(9.00596 9.77351) scale(19.6985)">
<stop stop-color="white"/>
<stop offset="0.5" stop-color="#4C6B97"/>
<stop offset="1" stop-color="#231F20"/>
</radialGradient>
</defs>
</svg>
