<svg width="24" height="24" viewBox="0 0 24 24" fill="none" xmlns="http://www.w3.org/2000/svg">
<g clip-path="url(#clip0_1659_674)">
<path d="M18.375 0H5.625C2.5184 0 0 2.5184 0 5.625V18.375C0 21.4816 2.5184 24 5.625 24H18.375C21.4816 24 24 21.4816 24 18.375V5.625C24 2.5184 21.4816 0 18.375 0Z" fill="#F0DB4F"/>
<path d="M6.31064 20.0561L8.1472 18.9446C8.50158 19.5728 8.82389 20.1044 9.59705 20.1044C10.3381 20.1044 10.8054 19.8145 10.8054 18.6869V11.0183H13.0608V18.7188C13.0608 21.0548 11.6915 22.1181 9.6937 22.1181C7.88948 22.1181 6.8422 21.1837 6.31055 20.0559M14.2859 19.8144L16.1222 18.7512C16.6057 19.5407 17.234 20.1206 18.3455 20.1206C19.2801 20.1206 19.876 19.6534 19.876 19.0089C19.876 18.2357 19.2638 17.9617 18.2327 17.5108L17.669 17.269C16.0418 16.5764 14.9624 15.7064 14.9624 13.8698C14.9624 12.1782 16.2512 10.8893 18.2651 10.8893C19.6989 10.8893 20.73 11.3888 21.471 12.6937L19.7149 13.8215C19.3282 13.1287 18.9095 12.8549 18.2651 12.8549C17.6045 12.8549 17.1856 13.2738 17.1856 13.8215C17.1856 14.4981 17.6045 14.772 18.5711 15.191L19.1349 15.4326C21.052 16.2543 22.1314 17.0918 22.1314 18.9767C22.1314 21.0068 20.5365 22.1182 18.3939 22.1182C16.2996 22.1182 14.9463 21.1194 14.2859 19.8144Z" fill="#323330"/>
</g>
<defs>
<clipPath id="clip0_1659_674">
<rect width="24" height="24" fill="white"/>
</clipPath>
</defs>
</svg>
