<svg width="121" height="37" viewBox="0 0 121 37" fill="none" xmlns="http://www.w3.org/2000/svg">
<circle cx="12.3077" cy="12.3077" r="10.3077" stroke="white" stroke-width="4"/>
<line x1="2.02945" y1="7.20139" x2="12.908" y2="18.08" stroke="white" stroke-width="4"/>
<line x1="10.9813" y1="18.8868" x2="21.8599" y2="8.00825" stroke="white" stroke-width="4"/>
<line x1="12.2305" y1="36.0003" x2="12.2305" y2="17.8465" stroke="white" stroke-width="4"/>
<path d="M34.5848 17.4751C33.4623 17.4751 32.3768 17.3348 31.3282 17.0542C30.2943 16.7883 29.4303 16.3822 28.7362 15.8357L30.1097 13.3545C30.6118 13.768 31.2469 14.0929 32.0149 14.3292C32.7977 14.5803 33.5657 14.7058 34.3189 14.7058C35.5448 14.7058 36.4309 14.4326 36.9774 13.8862C37.5386 13.3397 37.8192 12.5274 37.8192 11.4492V9.65477L38.0408 6.664L37.9965 3.65108V1.08123H41.2752V11.0062C41.2752 13.2215 40.6992 14.8535 39.5472 15.9022C38.3952 16.9508 36.7411 17.4751 34.5848 17.4751ZM34.0531 12.424C32.9454 12.424 31.9411 12.1877 31.0402 11.7151C30.154 11.2277 29.4377 10.5557 28.8912 9.69908C28.3595 8.82769 28.0937 7.816 28.0937 6.664C28.0937 5.49723 28.3595 4.48554 28.8912 3.62892C29.4377 2.75754 30.154 2.08554 31.0402 1.61292C31.9411 1.14031 32.9454 0.903999 34.0531 0.903999C35.0574 0.903999 35.9435 1.11077 36.7115 1.52431C37.4795 1.92308 38.0777 2.55077 38.506 3.40738C38.9343 4.24923 39.1485 5.33477 39.1485 6.664C39.1485 7.97846 38.9343 9.064 38.506 9.92061C38.0777 10.7625 37.4795 11.3902 36.7115 11.8037C35.9435 12.2172 35.0574 12.424 34.0531 12.424ZM34.7398 9.58831C35.3454 9.58831 35.8845 9.47015 36.3571 9.23385C36.8297 8.98277 37.1989 8.63569 37.4648 8.19261C37.7306 7.74954 37.8635 7.24 37.8635 6.664C37.8635 6.07323 37.7306 5.56369 37.4648 5.13538C37.1989 4.69231 36.8297 4.35261 36.3571 4.11631C35.8845 3.86523 35.3454 3.73969 34.7398 3.73969C34.1343 3.73969 33.5952 3.86523 33.1226 4.11631C32.65 4.35261 32.2734 4.69231 31.9928 5.13538C31.7269 5.56369 31.594 6.07323 31.594 6.664C31.594 7.24 31.7269 7.74954 31.9928 8.19261C32.2734 8.63569 32.65 8.98277 33.1226 9.23385C33.5952 9.47015 34.1343 9.58831 34.7398 9.58831ZM54.018 13V10.6738L53.7965 10.1643V5.99938C53.7965 5.26092 53.5676 4.68492 53.1097 4.27138C52.6666 3.85784 51.9799 3.65108 51.0494 3.65108C50.4143 3.65108 49.7866 3.75446 49.1663 3.96123C48.5608 4.15323 48.0439 4.41908 47.6156 4.75877L46.3749 2.344C47.0248 1.88615 47.8076 1.53169 48.7232 1.28061C49.6389 1.02954 50.5694 0.903999 51.5146 0.903999C53.3312 0.903999 54.7417 1.33231 55.746 2.18892C56.7503 3.04554 57.2525 4.38215 57.2525 6.19877V13H54.018ZM50.3848 13.1772C49.4543 13.1772 48.6568 13.0222 47.9922 12.712C47.3276 12.3871 46.818 11.9514 46.4636 11.4049C46.1091 10.8585 45.9319 10.2455 45.9319 9.56615C45.9319 8.85723 46.1017 8.23692 46.4414 7.70523C46.7959 7.17354 47.3497 6.76 48.1029 6.46461C48.8562 6.15446 49.8383 5.99938 51.0494 5.99938H54.2174V8.01538H51.426C50.6137 8.01538 50.0525 8.14831 49.7423 8.41415C49.4469 8.68 49.2992 9.01231 49.2992 9.41108C49.2992 9.85415 49.4691 10.2086 49.8088 10.4745C50.1632 10.7255 50.6432 10.8511 51.2488 10.8511C51.8248 10.8511 52.3417 10.7182 52.7996 10.4523C53.2574 10.1717 53.5897 9.76554 53.7965 9.23385L54.3282 10.8289C54.0771 11.5969 53.6192 12.1803 52.9546 12.5791C52.29 12.9778 51.4334 13.1772 50.3848 13.1772ZM65.1043 13L60.8064 1.08123H64.0631L67.6298 11.3385H66.0791L69.8009 1.08123H72.7252L76.3363 11.3385H74.7855L78.4631 1.08123H81.5203L77.2003 13H73.8551L70.6871 4.20492H71.7061L68.4274 13H65.1043ZM92.2637 13V10.6738L92.0422 10.1643V5.99938C92.0422 5.26092 91.8132 4.68492 91.3554 4.27138C90.9123 3.85784 90.2255 3.65108 89.2951 3.65108C88.66 3.65108 88.0323 3.75446 87.412 3.96123C86.8065 4.15323 86.2895 4.41908 85.8612 4.75877L84.6206 2.344C85.2705 1.88615 86.0532 1.53169 86.9689 1.28061C87.8846 1.02954 88.8151 0.903999 89.7603 0.903999C91.5769 0.903999 92.9874 1.33231 93.9917 2.18892C94.996 3.04554 95.4982 4.38215 95.4982 6.19877V13H92.2637ZM88.6305 13.1772C87.7 13.1772 86.9025 13.0222 86.2378 12.712C85.5732 12.3871 85.0637 11.9514 84.7092 11.4049C84.3548 10.8585 84.1775 10.2455 84.1775 9.56615C84.1775 8.85723 84.3474 8.23692 84.6871 7.70523C85.0415 7.17354 85.5954 6.76 86.3486 6.46461C87.1018 6.15446 88.084 5.99938 89.2951 5.99938H92.4631V8.01538H89.6717C88.8594 8.01538 88.2982 8.14831 87.988 8.41415C87.6926 8.68 87.5449 9.01231 87.5449 9.41108C87.5449 9.85415 87.7148 10.2086 88.0545 10.4745C88.4089 10.7255 88.8889 10.8511 89.4945 10.8511C90.0705 10.8511 90.5874 10.7182 91.0452 10.4523C91.5031 10.1717 91.8354 9.76554 92.0422 9.23385L92.5739 10.8289C92.3228 11.5969 91.8649 12.1803 91.2003 12.5791C90.5357 12.9778 89.6791 13.1772 88.6305 13.1772Z" fill="white"/>
<path d="M29.5211 36.0768V33.7506L29.2995 33.2411V29.0762C29.2995 28.3377 29.0706 27.7617 28.6128 27.3482C28.1697 26.9346 27.4829 26.7279 26.5525 26.7279C25.9174 26.7279 25.2897 26.8312 24.6694 27.038C24.0639 27.23 23.5469 27.4959 23.1186 27.8356L21.878 25.4208C22.5279 24.9629 23.3106 24.6085 24.2263 24.3574C25.142 24.1063 26.0725 23.9808 27.0177 23.9808C28.8343 23.9808 30.2448 24.4091 31.2491 25.2657C32.2534 26.1223 32.7555 27.4589 32.7555 29.2756V36.0768H29.5211ZM25.8879 36.254C24.9574 36.254 24.1599 36.0989 23.4952 35.7888C22.8306 35.4639 22.3211 35.0282 21.9666 34.4817C21.6122 33.9352 21.4349 33.3223 21.4349 32.6429C21.4349 31.934 21.6048 31.3137 21.9445 30.782C22.2989 30.2503 22.8528 29.8368 23.606 29.5414C24.3592 29.2312 25.3414 29.0762 26.5525 29.0762H29.7205V31.0922H26.9291C26.1168 31.0922 25.5555 31.2251 25.2454 31.4909C24.95 31.7568 24.8023 32.0891 24.8023 32.4879C24.8023 32.9309 24.9722 33.2854 25.3119 33.5512C25.6663 33.8023 26.1463 33.9279 26.7519 33.9279C27.3279 33.9279 27.8448 33.7949 28.3026 33.5291C28.7605 33.2485 29.0928 32.8423 29.2995 32.3106L29.8312 33.9057C29.5802 34.6737 29.1223 35.2571 28.4577 35.6559C27.7931 36.0546 26.9365 36.254 25.8879 36.254ZM42.1086 36.254C41.0895 36.254 40.1074 36.1359 39.1622 35.8996C38.2317 35.6485 37.4932 35.3383 36.9468 34.9691L38.0988 32.4879C38.6452 32.8276 39.2877 33.1082 40.0262 33.3297C40.7794 33.5365 41.5179 33.6399 42.2415 33.6399C43.0391 33.6399 43.6003 33.5439 43.9252 33.3519C44.2649 33.1599 44.4348 32.894 44.4348 32.5543C44.4348 32.2737 44.3019 32.0669 44.036 31.934C43.7849 31.7863 43.4452 31.6756 43.0169 31.6017C42.5886 31.5279 42.116 31.454 41.5991 31.3802C41.0969 31.3063 40.5874 31.2103 40.0705 31.0922C39.5535 30.9592 39.0809 30.7672 38.6526 30.5162C38.2243 30.2651 37.8772 29.9254 37.6114 29.4971C37.3603 29.0688 37.2348 28.5149 37.2348 27.8356C37.2348 27.0823 37.4489 26.4177 37.8772 25.8417C38.3203 25.2657 38.9554 24.8152 39.7825 24.4903C40.6095 24.1506 41.5991 23.9808 42.7511 23.9808C43.5634 23.9808 44.3905 24.0694 45.2323 24.2466C46.0742 24.4239 46.7757 24.6823 47.3369 25.022L46.1849 27.4811C45.6089 27.1414 45.0255 26.9125 44.4348 26.7943C43.8588 26.6614 43.2975 26.5949 42.7511 26.5949C41.9831 26.5949 41.4219 26.6983 41.0674 26.9051C40.7129 27.1119 40.5357 27.3777 40.5357 27.7026C40.5357 27.998 40.6612 28.2196 40.9123 28.3672C41.1782 28.5149 41.5252 28.6331 41.9535 28.7217C42.3819 28.8103 42.8471 28.8916 43.3492 28.9654C43.8662 29.0245 44.3831 29.1205 44.9 29.2534C45.4169 29.3863 45.8822 29.5783 46.2957 29.8294C46.724 30.0657 47.0711 30.398 47.3369 30.8263C47.6028 31.2399 47.7357 31.7863 47.7357 32.4657C47.7357 33.2042 47.5142 33.8614 47.0711 34.4374C46.628 34.9986 45.9855 35.4417 45.1437 35.7666C44.3166 36.0916 43.3049 36.254 42.1086 36.254ZM57.1123 36.254C56.1228 36.254 55.2366 36.062 54.4539 35.678C53.6859 35.294 53.0877 34.7106 52.6594 33.9279C52.2311 33.1303 52.0169 32.1186 52.0169 30.8928V24.158H55.4729V30.3832C55.4729 31.3728 55.6797 32.1039 56.0932 32.5765C56.5215 33.0343 57.1197 33.2632 57.8877 33.2632C58.4194 33.2632 58.892 33.1525 59.3055 32.9309C59.7191 32.6946 60.044 32.3402 60.2803 31.8676C60.5166 31.3802 60.6348 30.7746 60.6348 30.0509V24.158H64.0908V36.0768H60.812V32.798L61.4102 33.7506C61.0114 34.5777 60.4206 35.2054 59.6379 35.6337C58.8699 36.0472 58.028 36.254 57.1123 36.254ZM76.7522 23.9808C77.6975 23.9808 78.5393 24.1728 79.2778 24.5568C80.031 24.926 80.6218 25.502 81.0501 26.2848C81.4784 27.0528 81.6925 28.0423 81.6925 29.2534V36.0768H78.2365V29.7851C78.2365 28.8251 78.0224 28.1162 77.5941 27.6583C77.1805 27.2005 76.5898 26.9716 75.8218 26.9716C75.2753 26.9716 74.7805 27.0897 74.3375 27.326C73.9091 27.5476 73.5695 27.8946 73.3184 28.3672C73.0821 28.8399 72.9639 29.4454 72.9639 30.1839V36.0768H69.5079V19.6386H72.9639V27.4589L72.1885 26.462C72.6168 25.6645 73.2298 25.0515 74.0273 24.6232C74.8248 24.1949 75.7331 23.9808 76.7522 23.9808ZM87.0406 36.0768V24.158H90.4966V36.0768H87.0406ZM88.7686 22.4965C88.1335 22.4965 87.6166 22.3119 87.2178 21.9426C86.8191 21.5734 86.6197 21.1155 86.6197 20.5691C86.6197 20.0226 86.8191 19.5648 87.2178 19.1955C87.6166 18.8263 88.1335 18.6417 88.7686 18.6417C89.4037 18.6417 89.9206 18.8189 90.3194 19.1734C90.7181 19.5131 90.9175 19.9562 90.9175 20.5026C90.9175 21.0786 90.7181 21.5586 90.3194 21.9426C89.9354 22.3119 89.4184 22.4965 88.7686 22.4965ZM95.9195 36.0768V24.158H99.2204V27.5254L98.7551 26.5506C99.1096 25.7088 99.6782 25.0737 100.461 24.6454C101.244 24.2023 102.196 23.9808 103.319 23.9808V27.1709C103.171 27.1562 103.038 27.1488 102.92 27.1488C102.802 27.134 102.676 27.1266 102.543 27.1266C101.598 27.1266 100.83 27.3999 100.239 27.9463C99.6635 28.478 99.3755 29.3125 99.3755 30.4497V36.0768H95.9195ZM113.174 36.254C111.904 36.254 110.774 35.9882 109.784 35.4565C108.81 34.9248 108.034 34.2011 107.458 33.2854C106.897 32.3549 106.616 31.2989 106.616 30.1174C106.616 28.9211 106.897 27.8651 107.458 26.9494C108.034 26.0189 108.81 25.2952 109.784 24.7783C110.774 24.2466 111.904 23.9808 113.174 23.9808C114.429 23.9808 115.552 24.2466 116.541 24.7783C117.531 25.2952 118.306 26.0115 118.868 26.9272C119.429 27.8429 119.709 28.9063 119.709 30.1174C119.709 31.2989 119.429 32.3549 118.868 33.2854C118.306 34.2011 117.531 34.9248 116.541 35.4565C115.552 35.9882 114.429 36.254 113.174 36.254ZM113.174 33.4183C113.75 33.4183 114.267 33.2854 114.725 33.0196C115.183 32.7537 115.544 32.3771 115.81 31.8897C116.076 31.3876 116.209 30.7968 116.209 30.1174C116.209 29.4232 116.076 28.8325 115.81 28.3451C115.544 27.8577 115.183 27.4811 114.725 27.2152C114.267 26.9494 113.75 26.8165 113.174 26.8165C112.598 26.8165 112.081 26.9494 111.623 27.2152C111.165 27.4811 110.796 27.8577 110.516 28.3451C110.25 28.8325 110.117 29.4232 110.117 30.1174C110.117 30.7968 110.25 31.3876 110.516 31.8897C110.796 32.3771 111.165 32.7537 111.623 33.0196C112.081 33.2854 112.598 33.4183 113.174 33.4183Z" fill="white"/>
</svg>
